<?xml version="1.0" encoding="utf-8"?><svg xml:space="preserve" viewBox="0 0 100 100" y="0" x="0" xmlns="http://www.w3.org/2000/svg" id="Layer_1" version="1.1" width="128px" height="128px" xmlns:xlink="http://www.w3.org/1999/xlink" style="width:100%;height:100%;background-size:initial;background-repeat-y:initial;background-repeat-x:initial;background-position-y:initial;background-position-x:initial;background-origin:initial;background-color:initial;background-clip:initial;background-attachment:initial;animation-play-state:paused" ><g class="ldl-scale" style="transform-origin:50% 50%;transform:scale(0.8);animation-play-state:paused" ><path fill="#c33837" d="M78.3 21.7c-15.6-15.6-41-15.6-56.6 0-15.6 15.6-15.6 41 0 56.6C29.5 86.1 39.8 90 50 90s20.5-3.9 28.3-11.7c15.6-15.6 15.6-41 0-56.6zM28 28c6.1-6.1 14-9.1 22-9.1 6.1 0 12.3 1.8 17.5 5.4L24.3 67.5C16 55.4 17.3 38.7 28 28zm44 44c-10.7 10.7-27.4 12-39.5 3.7l43.2-43.2C84 44.6 82.7 61.3 72 72z" style="fill:rgb(195, 56, 55);animation-play-state:paused" ></path>
<metadata xmlns:d="https://loading.io/stock/" style="animation-play-state:paused" ><d:name style="animation-play-state:paused" >disable</d:name>
<d:tags style="animation-play-state:paused" >prohibit,off,restrict,forbid,disable,web application</d:tags>
<d:license style="animation-play-state:paused" >by</d:license>
<d:slug style="animation-play-state:paused" >84ar04</d:slug></metadata></g><!-- generated by https://loading.io/ --></svg>