<?xml version="1.0" encoding="utf-8"?><svg xml:space="preserve" viewBox="0 0 100 100" y="0" x="0" xmlns="http://www.w3.org/2000/svg" id="圖層_1" version="1.1" width="128px" height="128px" xmlns:xlink="http://www.w3.org/1999/xlink" style="width:100%;height:100%;background-size:initial;background-repeat-y:initial;background-repeat-x:initial;background-position-y:initial;background-position-x:initial;background-origin:initial;background-color:initial;background-clip:initial;background-attachment:initial;animation-play-state:paused" ><g class="ldl-scale" style="transform-origin:50% 50%;transform:scale(0.8);animation-play-state:paused" ><circle fill="#ffdc6c" r="27" cy="50" cx="50" style="fill:rgb(255, 220, 108);animation-play-state:paused" ></circle>
<path fill="#f8b26a" d="M50 19.3c1.2 0 2.3.1 3.5.2L50 7.5l-3.5 12c1.2-.1 2.3-.2 3.5-.2z" style="fill:rgb(248, 178, 106);animation-play-state:paused" ></path>
<path fill="#f8b26a" d="M37.7 21.9l-9-8.7 3 12.1c1.9-1.4 3.9-2.5 6-3.4z" style="fill:rgb(248, 178, 106);animation-play-state:paused" ></path>
<path fill="#f8b26a" d="M25.3 31.8l-12.1-3 8.7 9c.9-2.2 2-4.2 3.4-6z" style="fill:rgb(248, 178, 106);animation-play-state:paused" ></path>
<path fill="#f8b26a" d="M92.5 50l-12-3.5c.1 1.1.2 2.3.2 3.5s-.1 2.3-.2 3.5l12-3.5z" style="fill:rgb(248, 178, 106);animation-play-state:paused" ></path>
<path fill="#f8b26a" d="M78.1 37.7l8.7-9-12.1 3c1.4 1.9 2.5 3.9 3.4 6z" style="fill:rgb(248, 178, 106);animation-play-state:paused" ></path>
<path fill="#f8b26a" d="M68.2 25.3l3-12.1-9 8.7c2.2.9 4.2 2 6 3.4z" style="fill:rgb(248, 178, 106);animation-play-state:paused" ></path>
<path fill="#f8b26a" d="M62.3 78.1l9 8.7-3-12.1c-1.9 1.4-3.9 2.5-6 3.4z" style="fill:rgb(248, 178, 106);animation-play-state:paused" ></path>
<path fill="#f8b26a" d="M74.7 68.2l12.1 3-8.7-9c-.9 2.2-2 4.2-3.4 6z" style="fill:rgb(248, 178, 106);animation-play-state:paused" ></path>
<path fill="#f8b26a" d="M50 80.7c-1.2 0-2.3-.1-3.5-.2l3.5 12 3.5-12c-1.2.1-2.3.2-3.5.2z" style="fill:rgb(248, 178, 106);animation-play-state:paused" ></path>
<path fill="#f8b26a" d="M21.9 62.3l-8.7 9 12.1-3c-1.4-1.9-2.5-3.9-3.4-6z" style="fill:rgb(248, 178, 106);animation-play-state:paused" ></path>
<path fill="#f8b26a" d="M31.8 74.7l-3 12.1 9-8.7c-2.2-.9-4.2-2-6-3.4z" style="fill:rgb(248, 178, 106);animation-play-state:paused" ></path>
<path fill="#f8b26a" d="M19.3 50c0-1.2.1-2.3.2-3.5L7.5 50l12 3.5c-.1-1.2-.2-2.3-.2-3.5z" style="fill:rgb(248, 178, 106);animation-play-state:paused" ></path>
<metadata xmlns:d="https://loading.io/stock/" style="animation-play-state:paused" ><d:name style="animation-play-state:paused" >sun</d:name>
<d:tags style="animation-play-state:paused" >burn,scorch,flame,hot,warm,light,bright,solar,drought,sun,weather</d:tags>
<d:license style="animation-play-state:paused" >pro</d:license>
<d:slug style="animation-play-state:paused" >p693vt</d:slug></metadata></g><!-- generated by https://loading.io/ --></svg>